<svg width="19" height="20" viewBox="0 0 19 20" fill="none" xmlns="http://www.w3.org/2000/svg">
<path d="M18.24 1.8H14.25V0.2C14.25 0.09 14.1645 0 14.06 0H12.73C12.6255 0 12.54 0.09 12.54 0.2V1.8H6.46V0.2C6.46 0.09 6.3745 0 6.27 0H4.94C4.8355 0 4.75 0.09 4.75 0.2V1.8H0.76C0.339625 1.8 0 2.1575 0 2.6V19.2C0 19.6425 0.339625 20 0.76 20H18.24C18.6604 20 19 19.6425 19 19.2V2.6C19 2.1575 18.6604 1.8 18.24 1.8ZM17.29 18.2H1.71V8.7H17.29V18.2ZM1.71 7V3.6H4.75V4.8C4.75 4.91 4.8355 5 4.94 5H6.27C6.3745 5 6.46 4.91 6.46 4.8V3.6H12.54V4.8C12.54 4.91 12.6255 5 12.73 5H14.06C14.1645 5 14.25 4.91 14.25 4.8V3.6H17.29V7H1.71Z" fill="#0A5587"/>
</svg>