<svg width="24" height="18" viewBox="0 0 24 18" fill="none" xmlns="http://www.w3.org/2000/svg">
<path d="M0 16.0356V1.45778C0 1.04474 0.112941 0.698278 0.338824 0.418384C0.563922 0.139461 0.843137 0 1.17647 0H22.3529C22.6863 0 22.9655 0.139461 23.1906 0.418384C23.4165 0.698278 23.5294 1.04474 23.5294 1.45778V16.0356C23.5294 16.4486 23.4165 16.7946 23.1906 17.0735C22.9655 17.3534 22.6863 17.4934 22.3529 17.4934C22.1961 17.4934 22.0443 17.4569 21.8976 17.384C21.7502 17.3112 21.6227 17.2077 21.5153 17.0735C21.4071 16.9404 21.3235 16.7825 21.2647 16.5998C21.2059 16.418 21.1765 16.23 21.1765 16.0356V14.5778H16.4706V16.0356C16.4706 16.23 16.4412 16.418 16.3824 16.5998C16.3235 16.7825 16.2404 16.9404 16.1329 17.0735C16.0247 17.2077 15.8973 17.3112 15.7506 17.384C15.6031 17.4569 15.451 17.4934 15.2941 17.4934C14.9608 17.4934 14.6816 17.3534 14.4565 17.0735C14.2306 16.7946 14.1176 16.4486 14.1176 16.0356V2.91556H2.35294V16.0356C2.35294 16.4486 2.24039 16.7946 2.01529 17.0735C1.78941 17.3534 1.5098 17.4934 1.17647 17.4934C0.843137 17.4934 0.563922 17.3534 0.338824 17.0735C0.112941 16.7946 0 16.4486 0 16.0356ZM16.4706 5.83113H21.1765V2.91556H16.4706V5.83113ZM16.4706 11.6623H21.1765V8.74669H16.4706V11.6623Z" fill="#0A5587"/>
</svg>